# xmcd CD database file
#
# Track frame offsets:
#	150
#	10002
#	22623
#	30763
#	42759
#	52792
#	65074
#	75892
#	87126
#	97041
#	105085
#	113488
#	126088
#	142197
#
# Disc length: 2033 seconds
#
# Revision: 1
# Processed by: cddbd v1.5.2PL0 Copyright (c) Steve Scherf et al.
# Submitted via: CDex 1.51
#
DISCID=8f07ef0e
DTITLE=Johnny Cash - Johnny Cash 3cd-1 (RINGO335-A)
DYEAR=2006
DGENRE=Country
TTITLE0=Ballad Of A Teenage Queen
TTITLE1=Folsom Prison Blues
TTITLE2=Guess Things Happen That Way
TTITLE3=You're The Nearest Thing To Heaven
TTITLE4=Get Rhythm
TTITLE5=Next In Line
TTITLE6=I Heard That Lonesom Whistle Blow
TTITLE7=Big River
TTITLE8=Hey Porter
TTITLE9=Wreck Of The Old '97
TTITLE10=Country Boy
TTITLE11=Ring Of Fire
TTITLE12=A Boy Named Sue
TTITLE13=If I Were A Carpenter
EXTD=Ringo 335A YEAR: 2006
EXTT0=
EXTT1=
EXTT2=
EXTT3=
EXTT4=
EXTT5=
EXTT6=
EXTT7=
EXTT8=
EXTT9=
EXTT10=
EXTT11=
EXTT12=
EXTT13=
PLAYORDER=
